<svg width="25" height="25" viewBox="0 0 25 25" fill="none" xmlns="http://www.w3.org/2000/svg">
<path d="M2.625 12.5C2.625 8.72876 2.625 6.84315 3.79657 5.67157C4.96815 4.5 6.85376 4.5 10.625 4.5H14.625C18.3962 4.5 20.2819 4.5 21.4534 5.67157C22.625 6.84315 22.625 8.72876 22.625 12.5V14.5C22.625 18.2712 22.625 20.1569 21.4534 21.3284C20.2819 22.5 18.3962 22.5 14.625 22.5H10.625C6.85376 22.5 4.96815 22.5 3.79657 21.3284C2.625 20.1569 2.625 18.2712 2.625 14.5V12.5Z" stroke="#CBCBCB" stroke-width="1.5"/>
<path d="M7.625 4.5V3" stroke="#CBCBCB" stroke-width="1.5" stroke-linecap="round"/>
<path d="M17.625 4.5V3" stroke="#CBCBCB" stroke-width="1.5" stroke-linecap="round"/>
<circle cx="17.125" cy="17" r="1.5" stroke="#CBCBCB" stroke-width="1.5"/>
<path d="M3.125 9.5H22.125" stroke="#CBCBCB" stroke-width="1.5" stroke-linecap="round"/>
</svg>
