<svg width="25" height="25" viewBox="0 0 25 25" fill="none" xmlns="http://www.w3.org/2000/svg">
<path d="M2.875 12.7039C2.875 10.4155 2.875 9.27128 3.3942 8.32274C3.9134 7.37421 4.86195 6.78551 6.75903 5.60813L8.75903 4.36687C10.7644 3.12229 11.7671 2.5 12.875 2.5C13.9829 2.5 14.9856 3.12229 16.991 4.36687L18.991 5.60812C20.8881 6.78551 21.8366 7.37421 22.3558 8.32274C22.875 9.27128 22.875 10.4155 22.875 12.7039V14.225C22.875 18.1258 22.875 20.0763 21.7034 21.2881C20.5319 22.5 18.6462 22.5 14.875 22.5H10.875C7.10376 22.5 5.21815 22.5 4.04657 21.2881C2.875 20.0763 2.875 18.1258 2.875 14.225V12.7039Z" stroke="#CBCBCB" stroke-width="1.5"/>
<path d="M15.875 18.5H9.875" stroke="#CBCBCB" stroke-width="1.5" stroke-linecap="round"/>
</svg>
