<svg width="20" height="21" viewBox="0 0 20 21" fill="none" xmlns="http://www.w3.org/2000/svg">
<path d="M11.6665 10.498C11.6665 8.42156 9.73567 6.33331 7.38079 6.33331C7.10185 6.33331 6.18237 6.33332 5.95222 6.33332C3.58529 6.33332 1.6665 8.19791 1.6665 10.498C1.6665 12.48 3.09128 14.1386 4.99984 14.5595C5.30614 14.6271 5.62489 14.6626 5.95222 14.6626" stroke="white" stroke-width="1.66667" stroke-linecap="round" stroke-linejoin="round"/>
<path d="M8.3335 10.498C8.3335 12.5744 10.2643 14.6627 12.6192 14.6627C12.8982 14.6627 13.8177 14.6627 14.0477 14.6627C16.4147 14.6627 18.3335 12.7981 18.3335 10.498C18.3335 8.51599 16.9087 6.85735 15.0002 6.43651C14.6938 6.36897 14.3751 6.33331 14.0477 6.33331" stroke="white" stroke-width="1.66667" stroke-linecap="round" stroke-linejoin="round"/>
</svg>
