<svg width="25" height="25" viewBox="0 0 25 25" fill="none" xmlns="http://www.w3.org/2000/svg">
<path d="M19.1241 10.2096V9.50497C19.1241 5.63623 16.1024 2.5 12.375 2.5C8.64756 2.5 5.62587 5.63623 5.62587 9.50497V10.2096C5.62587 11.0552 5.38472 11.8818 4.9328 12.5854L3.82536 14.3095C2.81382 15.8843 3.58605 18.0249 5.34536 18.5229C9.94774 19.8257 14.8023 19.8257 19.4046 18.5229C21.164 18.0249 21.9362 15.8843 20.9246 14.3095L19.8172 12.5854C19.3653 11.8818 19.1241 11.0552 19.1241 10.2096Z" stroke="#CBCBCB" stroke-width="1.5"/>
<path d="M7.875 19.5C8.53003 21.2478 10.2975 22.5 12.375 22.5C14.4525 22.5 16.22 21.2478 16.875 19.5" stroke="#CBCBCB" stroke-width="1.5" stroke-linecap="round"/>
</svg>
