<svg width="24" height="25" viewBox="0 0 24 25" fill="none" xmlns="http://www.w3.org/2000/svg">
<path d="M12.6187 4.27783C14.7918 2.89036 15.8784 2.19663 16.7137 2.62656C17.5491 3.0565 17.58 4.32537 17.6418 6.86312L17.6578 7.51967C17.6753 8.24082 17.6841 8.60139 17.8327 8.9128C17.9813 9.2242 18.2529 9.45119 18.7961 9.90516L19.2906 10.3185C21.202 11.916 22.1577 12.7148 21.9787 13.6603C21.7997 14.6059 20.6046 15.072 18.2142 16.0043L17.5958 16.2454C16.9165 16.5104 16.5769 16.6428 16.3222 16.8918C16.0675 17.1409 15.9266 17.4783 15.6448 18.1531L15.3882 18.7675C14.3964 21.1423 13.9005 22.3297 12.9545 22.4842C12.0085 22.6386 11.2389 21.6578 9.69982 19.6963L9.30163 19.1888C8.86425 18.6314 8.64557 18.3526 8.33956 18.1952C8.03356 18.0377 7.67488 18.0192 6.95753 17.9823L6.30443 17.9487C3.78002 17.8189 2.51782 17.754 2.11218 16.9039C1.70653 16.0538 2.42609 14.9815 3.86521 12.8369L4.23753 12.2821C4.64648 11.6727 4.85096 11.368 4.91653 11.0216C4.9821 10.6752 4.90135 10.3264 4.73983 9.62875L4.59279 8.9936C4.02442 6.53855 3.74024 5.31103 4.43551 4.6312C5.13079 3.95136 6.34506 4.26944 8.77361 4.9056L9.40191 5.07019C10.092 5.25097 10.4371 5.34135 10.7836 5.28478C11.1301 5.2282 11.4389 5.03106 12.0565 4.63679L12.6187 4.27783Z" stroke="#3A3A3A" stroke-width="1.5"/>
<path d="M19.5303 18.9697C19.2374 18.6768 18.7626 18.6768 18.4697 18.9697C18.1768 19.2626 18.1768 19.7374 18.4697 20.0303L19.5303 18.9697ZM20.4697 22.0303C20.7626 22.3232 21.2374 22.3232 21.5303 22.0303C21.8232 21.7374 21.8232 21.2626 21.5303 20.9697L20.4697 22.0303ZM18.4697 20.0303L20.4697 22.0303L21.5303 20.9697L19.5303 18.9697L18.4697 20.0303Z" fill="#3A3A3A"/>
</svg>
