<svg width="25" height="25" viewBox="0 0 25 25" fill="none" xmlns="http://www.w3.org/2000/svg">
<path d="M7.96808 4.30211C9.9968 3.1007 11.0112 2.5 12.125 2.5C13.2388 2.5 14.2532 3.1007 16.2819 4.30211L16.9681 4.70846C18.9968 5.90987 20.0112 6.51057 20.5681 7.5C21.125 8.48943 21.125 9.69084 21.125 12.0937V12.9063C21.125 15.3092 21.125 16.5106 20.5681 17.5C20.0112 18.4894 18.9968 19.0901 16.9681 20.2915L16.2819 20.6979C14.2532 21.8993 13.2388 22.5 12.125 22.5C11.0112 22.5 9.9968 21.8993 7.96808 20.6979L7.28192 20.2915C5.2532 19.0901 4.23884 18.4894 3.68192 17.5C3.125 16.5106 3.125 15.3092 3.125 12.9063V12.0937C3.125 9.69084 3.125 8.48943 3.68192 7.5C4.23884 6.51057 5.2532 5.90987 7.28192 4.70846L7.96808 4.30211Z" stroke="#CBCBCB" stroke-width="1.5"/>
<circle cx="12.125" cy="12.5" r="3" stroke="#CBCBCB" stroke-width="1.5"/>
</svg>
