<svg width="24" height="25" viewBox="0 0 24 25" fill="none" xmlns="http://www.w3.org/2000/svg">
<path d="M9 12.5C9 13.8807 7.88071 15 6.5 15C5.11929 15 4 13.8807 4 12.5C4 11.1193 5.11929 10 6.5 10C7.88071 10 9 11.1193 9 12.5Z" stroke="#3A3A3A" stroke-width="1.5"/>
<path d="M14 7L9 10.5" stroke="#3A3A3A" stroke-width="1.5" stroke-linecap="round"/>
<path d="M14 18L9 14.5" stroke="#3A3A3A" stroke-width="1.5" stroke-linecap="round"/>
<path d="M19 19C19 20.3807 17.8807 21.5 16.5 21.5C15.1193 21.5 14 20.3807 14 19C14 17.6193 15.1193 16.5 16.5 16.5C17.8807 16.5 19 17.6193 19 19Z" stroke="#3A3A3A" stroke-width="1.5"/>
<path d="M19 6C19 7.38071 17.8807 8.5 16.5 8.5C15.1193 8.5 14 7.38071 14 6C14 4.61929 15.1193 3.5 16.5 3.5C17.8807 3.5 19 4.61929 19 6Z" stroke="#3A3A3A" stroke-width="1.5"/>
</svg>
